<?xml version="1.0" encoding="UTF-8"?>
<svg width="105px" height="37px" viewBox="0 0 105 37" version="1.1" xmlns="http://www.w3.org/2000/svg" xmlns:xlink="http://www.w3.org/1999/xlink">
    <defs>
        <polygon points="54.6498505 0.0814485981 0.477700935 0.0814485981 0.477700935 27.8913364 54.6498505 27.8913364"></polygon>
    </defs>
    <g stroke="none" stroke-width="1" fill="none" fill-rule="evenodd">
        <g transform="translate(-135.000000, -16.000000)">
            <g transform="translate(135.000000, 15.000000)">
                <g>
                    <g>
                        <polygon fill="#222222" points="0.120995327 11.6110374 1.37510748 14.5304299 9.87029439 14.5304299 0.000294392523 26.1913178 0.000294392523 28.3266449 14.7287523 28.3266449 13.6973972 25.4072523 4.63403271 25.4072523 14.5354346 13.7463645 14.5354346 11.6110374"></polygon>
                        <g transform="translate(14.719626, 0.899762)">
                            <path d="M25.5588645,13.4172336 C23.0535841,13.4172336 20.3490981,15.5604112 20.3490981,19.0234486 C20.3490981,22.6130748 22.9976495,24.7219065 25.5588645,24.7219065 C28.5361542,24.7219065 30.6155467,22.4158318 30.6155467,19.1147103 C30.6155467,15.7880748 28.4890514,13.4172336 25.5588645,13.4172336 L25.5588645,13.4172336 Z M17.166715,35.2601776 C17.1726028,18.417 17.176528,18.3669533 17.1775093,18.3434019 C17.5229299,13.927514 21.1174626,10.488028 25.538257,10.3427944 C25.6354065,10.3398505 25.7305935,10.3378879 25.8247991,10.3378879 C27.8659206,10.3378879 29.7205935,11.0591495 31.1905935,12.4231682 C31.2219953,12.4516262 31.2583037,12.4820467 31.2955935,12.5124673 C31.3721355,12.575271 31.4476963,12.6390561 31.5183505,12.7106916 C31.6302196,12.826486 31.7263879,12.9481682 31.8215748,13.0718131 L31.9383505,13.2190093 C32.166014,13.4908318 32.388771,13.7636355 32.586014,14.0756916 L32.5997523,14.0972804 L32.6390047,14.1738224 C33.5094252,15.6045701 33.9480701,17.2325607 33.9480701,19.0234486 C33.9480701,21.5100841 33.1532103,23.6434486 31.6508271,25.2557383 C31.6380701,25.2734019 31.6184439,25.295972 31.5978364,25.3185421 C31.236715,25.6983084 30.8373224,26.043729 30.4114346,26.3420467 C29.0611542,27.2811589 27.5420888,27.7629813 25.9847523,27.7629813 C25.3655467,27.7629813 24.7571355,27.6864393 24.1232103,27.5274673 C22.7631168,27.2536822 21.5040981,26.673729 20.4403598,25.8376542 L20.4403598,33.3701776 L17.166715,36.308215 L17.166715,35.2601776 Z" id="Fill-2" fill="#222222"></path>
                            <path d="M8.30255607,19.4914346 C5.76292991,19.4914346 4.18498598,20.5286776 4.18498598,22.1978832 C4.18498598,24.0976963 5.98863084,24.9347523 7.66568692,24.9347523 C10.3750794,24.9347523 12.4171822,23.3126495 12.4171822,21.1596589 L12.4171822,20.0488178 C11.4525561,19.7868084 10.0630234,19.4914346 8.30255607,19.4914346 M7.7108271,27.7805467 C7.60288318,27.7805467 7.40858411,27.771715 7.28788318,27.7668084 L7.20152804,27.7628832 C6.45769626,27.7628832 5.65106075,27.6372757 4.81204206,27.3890047 C4.62461215,27.3340514 4.02012617,27.0916682 3.78461215,26.9719486 C3.53535981,26.8483037 3.31947196,26.7030701 3.12026636,26.5656869 L3.03881776,26.511715 C2.96718224,26.4655935 2.89652804,26.4184907 2.82881776,26.3655 C2.67377103,26.2418551 2.5422757,26.1123224 2.41078037,25.9798458 C1.41377103,25.026014 0.881901869,23.778771 0.881901869,22.3813879 C0.881901869,18.8496589 3.63152804,16.6937243 8.05722897,16.6937243 C9.91877103,16.6937243 11.2562944,16.9312009 12.3867617,17.2216682 C12.3278832,14.1815748 10.0914813,13.5388178 8.21129439,13.5388178 C6.65788318,13.5388178 5.29092056,13.8636308 3.64134112,14.6251262 L3.18012617,14.8390514 L2.15858411,12.031528 L2.55110748,11.8519486 C4.12120093,11.1326495 5.92288318,10.4673224 8.45269626,10.4673224 C10.7666215,10.4673224 12.6340514,11.1169486 13.8547991,12.3445654 C15.0490514,13.5447056 15.6290047,15.1707336 15.6290047,17.3139112 L15.6290047,22.8641916 L15.6054533,22.8641916 C15.2688645,25.7816215 11.2945654,27.7805467 7.7108271,27.7805467" id="Fill-4" fill="#222222"></path>
                            <g transform="translate(35.327103, 0.000000)">
                                <mask fill="white">
                                    <use xlink:href="#path-1"></use>
                                </mask>
                                <path d="M48.5961589,27.7333458 C46.2439626,27.7333458 43.6415327,26.8040467 41.8055047,25.3075514 L41.4669533,25.032785 L43.1812991,22.6020841 L43.5669533,22.8935327 C45.2312523,24.1496075 47.0123271,24.812972 48.7178411,24.812972 C50.3801776,24.812972 51.4978879,23.9955421 51.4978879,22.7777383 C51.4978879,21.4902617 49.9484019,20.9583925 47.9239626,20.390215 C45.5874673,19.7229252 42.3913458,18.8103084 42.3913458,15.4817103 C42.3913458,12.4857757 44.7818131,10.4358224 48.2036355,10.4358224 C50.1868598,10.4358224 52.3938224,11.1158692 54.1071869,12.2541869 L54.4791028,12.5014766 L52.9374673,15.0715234 L52.5312056,14.8065701 C51.1141963,13.8851215 49.5136822,13.3561963 48.1418131,13.3561963 C46.6060654,13.3561963 45.573729,14.0882523 45.573729,15.1775047 C45.573729,16.3727383 47.3420467,16.9144206 49.2134019,17.4875047 L49.2791495,17.5081121 C51.4164393,18.1528318 54.6498505,19.1282523 54.6498505,22.4725514 C54.6498505,25.5950748 52.160271,27.7333458 48.5961589,27.7333458 L48.5961589,27.7333458 Z M14.9627944,19.4913364 C12.4231682,19.4913364 10.8452243,20.5285794 10.8452243,22.197785 C10.8452243,24.0975981 12.6488692,24.9346542 14.3249439,24.9346542 C17.0343364,24.9346542 19.0774206,23.3125514 19.0774206,21.1595607 L19.0774206,20.0487196 C18.1137757,19.7867103 16.7232617,19.4913364 14.9627944,19.4913364 L14.9627944,19.4913364 Z M14.3710654,27.7804486 C14.2621402,27.7804486 14.0688224,27.7725981 13.9471402,27.7667103 L13.8617664,27.762785 C13.1179346,27.762785 12.3112991,27.6371776 11.4712991,27.3889065 C11.2848505,27.3339533 10.6803645,27.0915701 10.4458318,26.9718505 C10.1936355,26.846243 9.97774766,26.7019907 9.78050467,26.5655888 L9.70101869,26.5135794 C9.62938318,26.4664766 9.55578505,26.4183925 9.48807477,26.3654019 C9.33302804,26.241757 9.2005514,26.111243 9.07003738,25.9787664 C8.07400935,25.0268972 7.54214019,23.7796542 7.54214019,22.3812897 C7.54214019,18.8495607 10.2917664,16.6936262 14.7184486,16.6936262 C16.5790093,16.6936262 17.9165327,16.9311028 19.047,17.2215701 C18.9871402,14.1814766 16.7517196,13.5387196 14.8715327,13.5387196 C13.3171402,13.5387196 11.9501776,13.8635327 10.3015794,14.625028 L9.84036449,14.8389533 L8.81882243,12.0324112 L9.21134579,11.8518505 C10.7804579,11.1325514 12.5821402,10.4672243 15.1129346,10.4672243 C17.4258785,10.4672243 19.2942897,11.1168505 20.5140561,12.3444673 C21.7083084,13.5455888 22.289243,15.1716168 22.289243,17.3138131 L22.289243,22.8640935 L22.2656916,22.8640935 C21.9291028,25.7815234 17.9538224,27.7804486 14.3710654,27.7804486 L14.3710654,27.7804486 Z M32.6126075,13.3993738 C30.0523738,13.3993738 27.4028411,15.5082056 27.4028411,19.0360093 C27.4028411,22.5598879 30.1073271,24.7040467 32.6126075,24.7040467 C35.5427944,24.7040467 37.6692897,22.3332056 37.6692897,19.0674112 C37.6692897,15.7054486 35.5898972,13.3993738 32.6126075,13.3993738 L32.6126075,13.3993738 Z M32.592,27.7775047 C28.1712056,27.6332523 24.5766729,24.1947477 24.2322336,19.7778785 C24.230271,19.7533458 24.2263458,19.7032991 24.2214393,2.54904673 L24.2204579,1.49904673 L27.4941028,4.44100935 L27.4941028,12.2836262 C28.5588224,11.4465701 29.820785,10.8675981 31.1985421,10.5889065 C31.8108785,10.4348411 32.4183084,10.3573178 33.037514,10.3573178 C34.5958318,10.3573178 36.1148972,10.8391402 37.4318131,11.7507757 L37.4543832,11.7664766 L37.4897103,11.7978785 C37.8891028,12.0755888 38.2894766,12.4210093 38.6545234,12.8047009 L38.7104579,12.8724112 C40.2079346,14.4768505 41.0018131,16.6111963 41.0018131,19.0360093 C41.0018131,20.8877383 40.5631682,22.515729 39.6976542,23.9366636 C39.678028,23.9788598 39.6623271,24.0082991 39.6446636,24.036757 C39.4434953,24.3566636 39.219757,24.6294673 38.9891495,24.905215 L38.8743364,25.0504486 C38.7801308,25.1731121 38.6839626,25.2947944 38.5779813,25.4056822 C38.5014393,25.4822243 38.4258785,25.545028 38.3503178,25.6078318 C38.313028,25.6382523 38.2757383,25.6686729 38.2394299,25.7020374 C36.7743364,27.0611495 34.9196636,27.7824112 32.8795234,27.7824112 C32.7843364,27.7824112 32.6891495,27.7804486 32.592,27.7775047 L32.592,27.7775047 Z M4.68653271,27.6656355 C2.49330841,26.3398879 1.00466355,24.1231121 0.605271028,21.583486 C0.592514019,21.504 0.577794393,21.4323645 0.562093458,21.3597477 C0.531672897,21.2105888 0.502233645,21.0614299 0.490457944,20.9054019 C0.488495327,20.8798879 0.484570093,20.8288598 0.478682243,1.13105607 L0.477700935,0.0810560748 L3.7523271,3.02301869 L3.7523271,13.9773645 L3.74447664,13.9803084 L3.74251402,21.084 C3.96527103,22.7708692 4.92891589,24.2663832 6.38419626,25.1269907 L6.8198972,25.3840935 L5.06041121,27.8913364 L4.68653271,27.6656355 Z" id="Fill-6" fill="#24B0E5" mask="url(#mask-2)"></path>
                            </g>
                        </g>
                    </g>
                </g>
            </g>
        </g>
    </g>
</svg>
